<svg width="50" height="43" viewBox="0 0 50 43" fill="none" xmlns="http://www.w3.org/2000/svg">
<g clip-path="url(#clip0_7_73)">
<path d="M21.2759 21.5C21.2759 27.7386 26.2779 32.7959 32.4483 32.7959V10.2041C26.2779 10.2041 21.2759 15.2615 21.2759 21.5Z" fill="black"/>
<path d="M6.37933 6.43896V31.1227L11.7587 36.5615H36.1725V11.8778L30.7932 6.43896H6.37933ZM32.4483 32.7961C26.278 32.7961 21.2759 27.7388 21.2759 21.5002C21.2759 15.2617 26.278 10.2043 32.4483 10.2043V32.7961Z" fill="#FFD53D"/>
<path d="M33.7578 0L34.0518 0.296875L38.5928 4.88867L38.8027 4.9707C45.6071 7.64129 50 14.1365 50 21.5C50 27.031 47.3778 32.3265 42.9814 35.6738L42.5518 36.001V43H8.79395L8.5 42.7031L0.289062 34.4014L0 34.1094V0H33.7578ZM3.65527 32.5938L10.3135 39.3262H38.8965V33.9639L39.3906 33.6738C43.5436 31.2389 46.3447 26.6956 46.3447 21.5C46.3447 15.2896 42.3434 10.012 36.8203 8.1543L36.5947 8.0791L36.4277 7.91016L32.2383 3.67383H3.65527V32.5938Z" fill="white" stroke="white" stroke-width="2"/>
<path d="M37.1391 7.20682L32.6552 2.67334H2.65515V33.005L9.89655 40.3264H39.8965V34.5362C44.345 31.9281 47.3448 27.0626 47.3448 21.4999C47.3448 14.8518 43.0613 9.19884 37.1391 7.20682ZM36.1724 36.5611H11.7586L6.37925 31.1223V6.43863H30.793L36.1724 11.8774L36.1724 36.5611Z" fill="black"/>
</g>
<defs>
<clipPath id="clip0_7_73">
<rect width="50" height="43" fill="white"/>
</clipPath>
</defs>
</svg>
