<svg width="2807" height="650" viewBox="0 0 2807 650" fill="none" xmlns="http://www.w3.org/2000/svg">
<g clip-path="url(#clip0_38_63)">
<path d="M324.414 325C324.414 423.903 404.446 504.081 503.172 504.081V145.918C404.446 145.918 324.414 226.096 324.414 325Z" fill="black"/>
<path d="M86.0691 86.2246V477.552L172.138 563.776H562.76V172.449L476.69 86.2246H86.0691ZM503.173 504.082C404.447 504.082 324.414 423.904 324.414 325C324.414 226.097 404.447 145.919 503.173 145.919V504.082Z" fill="#FFD53D"/>
<path d="M598.991 77.7039L592.494 75.1774L517.448 0H0V518.387L131.376 650H648.827V547.045L662.017 537.096C728.379 487.031 767.999 407.744 767.999 325.001C767.999 214.698 701.664 117.629 598.991 77.7039ZM622.345 531.674V623.469H142.345L26.4829 507.398V26.5305H506.483L578.226 98.4028C672.981 129.983 741.518 219.603 741.518 325C741.518 413.191 693.52 490.325 622.345 531.674Z" fill="white"/>
<path d="M578.226 98.4025L506.483 26.5303H26.4829V507.398L142.345 623.469H622.345V531.673C693.52 490.325 741.518 413.19 741.518 325C741.518 219.603 672.981 129.983 578.226 98.4025ZM562.759 563.775H172.138L86.0686 477.55V86.2239H476.689L562.758 172.449L562.759 563.775Z" fill="black"/>
</g>
<path d="M2475.55 150H2602.48L2641.21 243.333H2646.81L2685.54 150H2806.88L2729.42 318.934L2806.88 499.999H2682.74L2640.75 399.2H2635.61L2594.08 499.999H2475.55L2551.61 322.667L2475.55 150Z" fill="white"/>
<path d="M2235 444.466L2222.4 499.999H2104.33L2194.87 150H2368L2458.54 499.999H2340.47L2327.4 444.466H2235ZM2284.47 257.333H2278.4L2255.53 355.332H2306.87L2284.47 257.333Z" fill="white"/>
<path d="M2084.79 410.4V499.999H1860.78V150H1972.78V410.4H2084.79Z" fill="white"/>
<path d="M1832 410.4V499.999H1608V150H1720V410.4H1832Z" fill="white"/>
<path d="M1361.68 444.466L1349.08 499.999H1231.01L1321.55 150H1494.68L1585.21 499.999H1467.14L1454.08 444.466H1361.68ZM1411.15 257.333H1405.08L1382.21 355.332H1433.55L1411.15 257.333Z" fill="white"/>
<path d="M1024.34 347.867H1022V499.999H910V150H1022V292.8H1024.34C1024.64 287.2 1025.27 282.222 1026.2 277.867C1027.14 273.2 1028.38 269.155 1029.94 265.734L1084.54 150.001H1205.87L1121.86 321.734L1208.66 500H1087.34L1029.94 374.467C1028.38 371.045 1027.14 367.156 1026.2 362.8C1025.27 358.445 1024.64 353.466 1024.34 347.867Z" fill="white"/>
<defs>
<clipPath id="clip0_38_63">
<rect width="768" height="650" fill="white"/>
</clipPath>
</defs>
</svg>
