<svg width="117" height="99" viewBox="0 0 117 99" fill="none" xmlns="http://www.w3.org/2000/svg">
<g clip-path="url(#clip0_7_30)">
<path d="M49.4224 49.5C49.4224 64.5638 61.6149 76.7755 76.6551 76.7755V22.2245C61.6149 22.2245 49.4224 34.4362 49.4224 49.5Z" fill="black"/>
<path d="M13.1121 13.1326V72.7347L26.2242 85.8674H85.7329V26.2653L72.6208 13.1326H13.1121ZM76.6552 76.7755C61.615 76.7755 49.4225 64.5638 49.4225 49.5C49.4225 34.4362 61.615 22.2245 76.6552 22.2245V76.7755Z" fill="#FFDB14"/>
<path d="M91.2526 11.8349L90.2627 11.4501L78.83 0H0V78.9543L20.0143 99H98.8448V83.3192L100.854 81.8039C110.964 74.1785 117 62.1025 117 49.5001C117 32.7001 106.894 17.9158 91.2526 11.8349ZM94.8104 80.978V94.9591H21.6854L4.0345 77.2806V4.0408H77.1595L88.0891 14.9875C102.525 19.7974 112.966 33.4472 112.966 49.5C112.966 62.9321 105.653 74.6803 94.8104 80.978Z" fill="white"/>
<path d="M88.0891 14.9875L77.1595 4.0408H4.03448V77.2806L21.6854 94.9591H94.8104V80.978C105.653 74.6803 112.966 62.932 112.966 49.5C112.966 33.4473 102.524 19.7975 88.0891 14.9875ZM85.7328 85.8673H26.2241L13.112 72.7346V13.1326H72.6206L85.7327 26.2653L85.7328 85.8673Z" fill="black"/>
</g>
<defs>
<clipPath id="clip0_7_30">
<rect width="117" height="99" fill="white"/>
</clipPath>
</defs>
</svg>
